<?xml version="1.0" encoding="UTF-8"?><svg id="Layer_1" xmlns="http://www.w3.org/2000/svg" viewBox="0 0 40 40"><defs><style>.cls-1{fill:#fdb614;}</style></defs><path class="cls-1" d="M8.61,12.5c1.42,0,2.69-.47,3.71-1.45,1.6-1.54,3.16-3.13,4.73-4.71,.51-.52,.65-1.17,.46-1.87-.12-.46,.08-.72,.57-.72,1.29,0,2.58,0,3.86,0,1.2-.01,2.07-1.2,1.75-2.36-.2-.75-.74-1.14-1.42-1.39H13.52c-.19,.08-.38,.15-.55,.28-1.99,1.46-4,2.91-6,4.37-.55,.4-1.15,.21-1.73,.22-.11,0-.17-.12-.22-.21-.16-.27-.41-.39-.72-.39-1.2,0-2.4,0-3.59,0-.34,0-.61,.13-.7,.49V13.36c.17,.21,.34,.4,.66,.4,1.22-.01,2.45,0,3.67,0,.44,0,.66-.23,.67-.68,0-.08,.01-.16,0-.23-.04-.27,.05-.35,.33-.34,1.09,.02,2.19,0,3.28,0Zm-4.85-.25c0,.22-.08,.25-.27,.25-.66,0-1.33-.01-1.99,0-.22,0-.25-.08-.25-.27,0-1.07,0-2.13,0-3.2,0-1.03,0-2.06,0-3.08,0-.23,.03-.34,.31-.33,.64,.02,1.28,.02,1.91,0,.21,0,.29,.03,.29,.27,0,2.12,0,4.24,0,6.36Zm1.5-1c-.2,0-.27-.05-.26-.26,.01-.75,0-1.51,0-2.26s0-1.48,0-2.23c0-.2,.05-.27,.26-.26,.46,.02,.91-.01,1.37,.01,.33,.02,.6-.09,.86-.28,2.03-1.49,4.08-2.97,6.11-4.46,.27-.2,.53-.28,.85-.27,2.37,.01,4.74,0,7.11,0,.09,0,.18,0,.27,0,.4,.02,.67,.28,.67,.62,0,.34-.27,.62-.67,.62-.64,.01-1.28,0-1.91,0-.66,0-1.33,.03-1.99,0-.5-.03-.89,.1-1.19,.5-.14,.19-.28,.23-.53,.15-.73-.23-1.4-.08-1.94,.46-1.11,1.08-2.19,2.19-3.29,3.28-.14,.14-.16,.22,0,.36,.24,.21,.45,.6,.71,.63,.27,.03,.47-.38,.7-.61,.91-.9,1.8-1.81,2.71-2.7,.44-.43,1.03-.29,1.2,.26,.08,.27-.01,.49-.19,.67-1.56,1.57-3.11,3.14-4.71,4.68-.76,.73-1.73,1.04-2.77,1.06-1.12,.02-2.24,0-3.36,.01Z"/><path class="cls-1" d="M28.31,22.72c.05-.19,.16-.23,.33-.22,.44,.01,.89,0,1.33,0,.42,0,.65-.24,.65-.65,0-1.22,0-2.45,0-3.67,0-.44-.23-.67-.67-.67-.43,0-.86-.01-1.29,0-.2,0-.3-.04-.36-.24-.11-.41-.28-.81-.49-1.18-.1-.18-.07-.29,.08-.43,.31-.29,.62-.6,.91-.91,.31-.32,.31-.65,0-.96-.86-.87-1.72-1.74-2.6-2.59-.31-.3-.64-.29-.96,.02-.26,.25-.54,.5-.77,.78-.22,.26-.4,.31-.71,.14-.32-.18-.69-.31-1.04-.42-.18-.06-.24-.14-.23-.32,.01-.42,0-.83,0-1.25,0-.54-.21-.74-.76-.74-.57,0-1.15,0-1.72,0s-1.15,0-1.72,0c-.6,0-.8,.19-.8,.78,0,.4,0,.81,0,1.21,0,.18-.05,.28-.23,.33-.41,.11-.81,.28-1.18,.49-.18,.1-.29,.09-.43-.07-.29-.32-.6-.62-.91-.91-.34-.32-.66-.32-.99,0-.85,.84-1.7,1.69-2.54,2.54-.34,.35-.34,.67,0,1.02,.29,.3,.58,.6,.89,.88,.14,.13,.17,.24,.08,.43-.22,.46-.29,1.13-.65,1.36-.37,.24-1.01,.05-1.53,.07-.4,0-.63,.24-.64,.63,0,1.24,0,2.47,0,3.71,0,.42,.23,.65,.65,.66,.43,0,.86,.01,1.29,0,.21,0,.33,.04,.39,.26,.11,.41,.28,.81,.49,1.18,.09,.17,.07,.27-.07,.4-.3,.28-.59,.58-.88,.88-.36,.37-.37,.69-.01,1.05,.83,.84,1.67,1.68,2.51,2.51,.36,.35,.68,.35,1.05-.02,.3-.29,.6-.58,.88-.89,.13-.14,.23-.15,.4-.06,.39,.21,.79,.38,1.22,.5,.16,.04,.22,.12,.22,.3-.02,.44,0,.88,0,1.33,0,.45,.23,.68,.66,.69,1.22,0,2.45,0,3.67,0,.44,0,.66-.24,.67-.68,0-.38,.02-.76,0-1.13-.02-.32,.06-.49,.4-.55,.46-.09,.89-.59,1.3-.45,.41,.14,.69,.64,1.04,.98,.35,.34,.67,.34,1.02,0,.85-.84,1.7-1.69,2.54-2.54,.32-.33,.32-.66,0-.99-.3-.31-.6-.62-.91-.91-.13-.13-.17-.22-.08-.4,.21-.38,.39-.79,.5-1.22Zm-1.03-.96c-.19,.76-.49,1.47-.89,2.15-.19,.31-.14,.6,.12,.85,.33,.33,.67,.65,1,.96l-1.78,1.79c-.31-.32-.62-.63-.92-.95-.28-.3-.58-.36-.94-.14-.65,.39-1.34,.68-2.07,.86-.36,.09-.54,.32-.53,.7,.01,.38,0,.76,0,1.13,0,.18,0,.28-.24,.28-.68-.02-1.35-.01-2.03,0-.2,0-.24-.07-.23-.25,.01-.39,0-.78,0-1.17,0-.37-.16-.6-.51-.69-.76-.19-1.47-.49-2.15-.89-.31-.19-.59-.14-.85,.12-.33,.33-.65,.66-.98,.99l-1.78-1.77c.32-.31,.63-.62,.95-.93,.3-.28,.36-.58,.14-.94-.39-.65-.67-1.34-.86-2.07-.09-.36-.32-.55-.7-.53-.38,.01-.76,0-1.13,0-.18,0-.28,0-.28-.24,.02-.68,.01-1.35,0-2.03,0-.2,.07-.24,.25-.23,.39,.01,.78,0,1.17,0,.37,0,.6-.17,.69-.51,.19-.76,.49-1.47,.89-2.15,.19-.31,.14-.6-.12-.85-.33-.33-.67-.65-.99-.96l1.79-1.79c.3,.31,.61,.62,.92,.95,.28,.3,.58,.36,.94,.14,.65-.39,1.34-.67,2.07-.86,.36-.09,.54-.32,.53-.71-.01-.38,0-.76,0-1.13,0-.18,.02-.28,.25-.27,.68,.02,1.35,.01,2.03,0,.2,0,.24,.07,.23,.25-.01,.39,0,.78,0,1.17,0,.37,.17,.6,.51,.68,.76,.19,1.47,.49,2.15,.89,.31,.19,.6,.13,.85-.12,.32-.32,.64-.65,.94-.95l1.78,1.78c-.28,.27-.59,.58-.91,.89-.3,.28-.36,.58-.14,.94,.39,.65,.67,1.34,.86,2.07,.09,.36,.32,.54,.71,.53,.38-.01,.76,0,1.13,0,.18,0,.28,.01,.27,.24-.02,.68-.01,1.35,0,2.03,0,.2-.07,.24-.25,.23-.39-.01-.78,0-1.17,0-.37,0-.6,.17-.68,.51Z"/><path class="cls-1" d="M40,26.9c0-.42-.24-.65-.66-.65-1.24,0-2.47,0-3.71,0-.39,0-.62,.24-.63,.64,0,.09-.01,.18,0,.27,.04,.27-.05,.35-.33,.35-1.11-.02-2.21-.01-3.32,0-1.4,0-2.65,.47-3.65,1.43-1.62,1.55-3.18,3.15-4.76,4.74-.51,.52-.65,1.17-.45,1.88,.12,.43-.09,.7-.55,.7-1.26,0-2.53,0-3.79,0-1.1,0-1.92,.81-1.91,1.88,0,1.07,.82,1.87,1.92,1.87,1.31,0,2.63,0,3.94,0,1.3,0,2.6,0,3.9,0,.32,0,.57-.08,.83-.27,1.81-1.33,3.66-2.61,5.44-3.99,.75-.58,1.49-.87,2.42-.76,.18,.02,.29,.03,.35,.24,.07,.26,.29,.39,.57,.39,1.25,0,2.5,0,3.75,0,.39,0,.63-.24,.63-.63,0-2.69,0-5.39,0-8.08Zm-4.99,6.5c0,.26-.04,.39-.33,.34-1.27-.2-2.27,.27-3.26,1.06-1.65,1.31-3.39,2.49-5.09,3.74-.2,.14-.39,.21-.64,.21-1.22-.01-2.45,0-3.67,0h-3.48c-.07,0-.13,0-.2,0-.52,0-.83-.23-.83-.62,0-.39,.3-.63,.82-.63,1.25,0,2.5-.02,3.75,0,.5,.01,.89-.09,1.19-.5,.15-.21,.31-.23,.57-.15,.71,.22,1.37,.06,1.91-.46,1.11-1.08,2.19-2.19,3.29-3.28,.14-.14,.16-.21,.02-.37-.7-.74-.7-.75-1.41-.03-.88,.88-1.77,1.77-2.65,2.65-.2,.2-.42,.36-.72,.3-.27-.06-.46-.22-.54-.5-.09-.29,.02-.51,.21-.71,.47-.47,.94-.94,1.41-1.41,.98-.98,1.97-1.97,2.95-2.96,.91-.91,2.01-1.36,3.29-1.36,1.03,0,2.06,0,3.09,0,.26,0,.35,.04,.35,.33-.02,1.44-.01,2.89,0,4.33Zm3.43,.97c-.64-.02-1.28-.02-1.91,0-.22,0-.28-.06-.28-.28,0-2.11,0-4.22,0-6.33,0-.22,.06-.28,.28-.28,.65,.01,1.3,.01,1.95,0,.22,0,.28,.06,.28,.28-.01,1.07,0,2.13,0,3.2s0,2.06,0,3.08c0,.25-.06,.33-.32,.32Z"/><path class="cls-1" d="M21.65,5.5c.22-.22,.59-.44,.6-.68,.01-.27-.41-.45-.61-.7-.16-.2-.26-.15-.42,0-.52,.53-1.05,1.05-1.57,1.57-.39,.39-.38,.7,.01,1.1,.46,.46,.92,.92,1.38,1.38q.4,.39,.8,0t.02-.96s-.12-.04-.19-.06l.09-.11s.09,0,.14,0c.06,0,.13,0,.19,.02,1.28,.22,2.53,.58,3.69,1.18,4.35,2.29,6.81,5.87,7.29,10.78,.03,.32-.05,.75,.12,.93,.18,.2,.61,.03,.94,.06,.21,.02,.26-.06,.26-.26,0-.6-.06-1.19-.15-1.79-.55-3.71-2.29-6.75-5.18-9.12-2.19-1.8-4.72-2.82-7.62-3.15,.13-.1,.18-.14,.23-.18Z"/><path class="cls-1" d="M18.36,34.5c-.73,.74-.73,.73,.06,1.44,.13,.12,.2,.1,.31-.01,.57-.57,1.15-1.13,1.71-1.71,.27-.28,.28-.63,0-.91-.57-.59-1.16-1.16-1.73-1.74-.07-.07-.14-.16-.25-.04-.25,.27-.55,.5-.73,.8-.04,.07,.34,.38,.52,.58,0,0,0,.02,0,.05-.11,.05-.22,.02-.33,0-1.45-.25-2.85-.68-4.13-1.41-4.09-2.34-6.4-5.84-6.85-10.55-.03-.32,.05-.74-.12-.93-.18-.2-.61-.03-.93-.06-.2-.02-.26,.05-.26,.26,.01,.77,.09,1.53,.23,2.29,.65,3.51,2.37,6.39,5.13,8.65,2.19,1.78,4.7,2.8,7.61,3.13-.13,.1-.19,.14-.24,.18Z"/><path class="cls-1" d="M20.04,14.37c-3.15,0-5.66,2.49-5.66,5.62,0,3.13,2.5,5.63,5.65,5.63,3.08,0,5.6-2.52,5.6-5.6,0-3.13-2.49-5.65-5.59-5.65Zm-.09,10c-2.4-.04-4.35-2.03-4.32-4.43,.03-2.37,2.03-4.34,4.39-4.32,2.42,.03,4.38,2.02,4.36,4.43-.03,2.39-2.04,4.35-4.43,4.31Z"/><path class="cls-1" d="M20.02,16.25c-2.09,0-3.76,1.65-3.77,3.71,0,2.11,1.65,3.79,3.73,3.79,2.1,0,3.77-1.66,3.77-3.75,0-2.07-1.66-3.75-3.73-3.75Zm0,6.25c-1.36,.01-2.52-1.13-2.52-2.49,0-1.35,1.12-2.49,2.47-2.5,1.36-.01,2.52,1.12,2.52,2.49,0,1.34-1.12,2.49-2.47,2.5Z"/></svg>