<?xml version="1.0" encoding="UTF-8"?><svg id="Layer_1" xmlns="http://www.w3.org/2000/svg" viewBox="0 0 40 40"><defs><style>.cls-1{fill:#fdb614;}</style></defs><path class="cls-1" d="M29.61,40c-1.15-1.14-2.32-2.28-3.46-3.43-.27-.28-.23-.62,.08-.93,.46-.46,.92-.91,1.4-1.38-.09-.1-.15-.19-.22-.26-.79-.79-1.58-1.59-2.38-2.37-.12-.11-.3-.21-.46-.22-1.48-.06-2.96-.11-4.45-.15-.79-.02-1.47-.28-2.04-.84-1.59-1.59-3.19-3.18-4.77-4.78-.7-.7-.46-1.7,.47-2.03,.61-.22,1.22-.41,1.85-.62-.08-.08-.16-.18-.25-.27-1.37-1.37-2.75-2.73-4.11-4.12-1.13-1.15-.69-3.02,.82-3.45,.42-.12,.58-.28,.69-.69,.35-1.25,1.81-1.83,2.96-1.21,.1,.06,.2,.12,.3,.18,.72-1.43,2.47-1.72,3.63-.47,.25-.6,.67-1.04,1.29-1.22,.88-.26,1.63,0,2.28,.64,1.93,1.93,3.86,3.87,5.8,5.8,.58,.58,1.18,1.14,1.73,1.75,.19,.21,.33,.5,.38,.77,.21,1.1,.37,2.2,.55,3.3,.02,.11,.06,.23,.13,.31,.93,.94,1.87,1.88,2.9,2.91,.29-.33,.55-.65,.84-.95,.4-.41,.72-.41,1.13,0,1,.99,1.99,1.99,2.98,2.98,.11,.11,.21,.23,.31,.35v.47c-.43,.52-.74,.53-1.22,.06-.87-.87-1.74-1.75-2.6-2.61l-8.65,8.66c.85,.85,1.72,1.71,2.58,2.57,.5,.5,.49,.8-.03,1.25h-.47Zm4.13-11.98c-.07-.07-.16-.18-.26-.28-.89-.89-1.79-1.78-2.67-2.68-.15-.15-.27-.36-.31-.56-.16-.88-.26-1.77-.43-2.65-.08-.43-.02-.89-.4-1.26-2.42-2.4-4.83-4.82-7.24-7.23-.1-.1-.2-.21-.32-.28-.32-.2-.67-.24-.98,0-.3,.23-.39,.56-.27,.91,.07,.19,.19,.37,.33,.51,.57,.59,1.16,1.16,1.73,1.75,.28,.29,.28,.65,.02,.91-.26,.26-.6,.26-.91-.01-.08-.07-.15-.15-.22-.22-1.04-1.04-2.08-2.09-3.13-3.11-.16-.16-.37-.3-.59-.35-.37-.08-.67,.09-.83,.43-.18,.37-.09,.7,.2,.99,1.07,1.07,2.14,2.13,3.2,3.2,.1,.1,.21,.2,.29,.32,.2,.29,.17,.58-.08,.81-.25,.23-.54,.25-.81,.03-.13-.1-.25-.23-.37-.35-1.4-1.41-2.8-2.83-4.22-4.23-.15-.15-.34-.29-.54-.35-.37-.11-.72,.07-.89,.39-.17,.32-.12,.7,.18,1,.99,1,1.99,1.99,2.98,2.98,.54,.54,1.09,1.08,1.63,1.63,.22,.23,.3,.49,.13,.78-.14,.25-.38,.38-.66,.3-.18-.05-.34-.18-.48-.31-1.04-1.02-2.06-2.06-3.1-3.09-.49-.49-.97-.98-1.47-1.46-.29-.28-.71-.29-1-.08-.29,.21-.43,.6-.29,.93,.08,.18,.23,.34,.37,.49,2.55,2.56,5.11,5.12,7.67,7.68,.36,.36,.4,.74,.11,1.02-.28,.27-.64,.23-.99-.12-.44-.44-.89-.87-1.32-1.33-1.06-1.11-2.12-1.01-3.56-.27,.12,.08,.22,.14,.3,.22,1.42,1.42,2.85,2.82,4.25,4.26,.44,.45,.94,.66,1.56,.67,1.3,.02,2.6,.1,3.9,.08,.77,0,1.35,.22,1.87,.81,.75,.85,1.58,1.61,2.35,2.39l5.26-5.26Z"/><path class="cls-1" d="M10.62,40c-.5-.52-.49-.76,.05-1.29,.85-.84,1.7-1.68,2.52-2.5L4.53,27.55c-.77,.77-1.56,1.57-2.36,2.37-.14,.14-.27,.28-.42,.41-.27,.22-.55,.21-.82-.02-.26-.22-.28-.55-.07-.84,.01-.02,.03-.04,.05-.06,1.08-1.08,2.15-2.16,3.23-3.23,.29-.28,.63-.26,.94,.04,.48,.46,.94,.94,1.42,1.42,.1-.09,.19-.16,.27-.24,.76-.76,1.52-1.53,2.3-2.29,.2-.2,.3-.4,.3-.68,.02-1.37,.05-2.73,.11-4.1,.02-.46,.12-.93,.26-1.37,.13-.41,.48-.55,.83-.42,.34,.13,.46,.47,.33,.88-.07,.25-.13,.5-.14,.76-.06,1.56-.11,3.12-.15,4.68,0,.34-.12,.6-.35,.83-.85,.84-1.69,1.69-2.55,2.53-.1,.1-.24,.16-.35,.23l5.31,5.3c.08-.07,.17-.15,.26-.24,.84-.84,1.68-1.67,2.51-2.52,.3-.31,.62-.54,1.07-.55,.21,0,.41-.07,.61-.1,.35-.05,.68,.15,.75,.47,.08,.35-.11,.65-.49,.76-.01,0-.03,.01-.04,.01-.75-.04-1.19,.47-1.65,.95-.7,.72-1.41,1.41-2.15,2.15,.3,.3,.58,.57,.85,.84,.48,.48,.48,.74,.01,1.21-1.08,1.09-2.16,2.17-3.24,3.25h-.55Z"/><path class="cls-1" d="M33.49,12.35c-.93,.93-1.81,1.81-2.69,2.7-.1,.1-.15,.27-.16,.42-.03,.57-.03,1.15-.04,1.72,0,.16,0,.31-.03,.47-.06,.38-.31,.59-.66,.57-.33-.02-.59-.26-.59-.61,0-.91,.03-1.82,.09-2.73,.01-.19,.18-.4,.33-.55,.85-.87,1.71-1.72,2.56-2.57,.09-.09,.18-.19,.24-.25l-5.25-5.25c-.55,.56-1.13,1.13-1.71,1.71-.3,.3-.64,.58-.9,.92-.39,.49-.9,.65-1.49,.73-.94,.12-1.87,.28-2.81,.45-.16,.03-.33,.13-.45,.25-.37,.38-.71,.79-1.08,1.18-.32,.34-.67,.37-.96,.1-.26-.25-.26-.62,.02-.94,.45-.51,.88-1.03,1.36-1.5,.17-.17,.44-.27,.68-.32,1.1-.2,2.2-.36,3.31-.54,.1-.02,.22-.04,.28-.1,.96-.95,1.91-1.91,2.91-2.91-.33-.32-.65-.6-.95-.91-.37-.37-.38-.68,0-1.04,1.02-1.03,2.04-2.05,3.06-3.07,.33-.33,.68-.36,.96-.09,.29,.28,.26,.64-.08,.99-.88,.89-1.77,1.77-2.62,2.62l8.65,8.66c.31-.32,.66-.68,1.02-1.03,.56-.56,1.12-1.13,1.69-1.68,.29-.28,.65-.27,.9-.01,.24,.25,.27,.6,0,.88-1.07,1.09-2.14,2.16-3.23,3.23-.29,.28-.63,.25-.94-.05-.47-.46-.93-.94-1.43-1.44Z"/><path class="cls-1" d="M12.35,5.77c.94,.94,1.84,1.85,2.75,2.74,.07,.07,.21,.1,.32,.11,.65,.05,1.3,.08,1.95,.13,.42,.03,.69,.31,.67,.66-.02,.36-.32,.61-.74,.59-.77-.03-1.54-.06-2.3-.14-.22-.02-.47-.15-.64-.31-.96-.93-1.9-1.89-2.81-2.8l-5.26,5.26s.12,.14,.22,.23c.83,.83,1.65,1.67,2.49,2.48,.31,.3,.52,.62,.56,1.07,.05,.55,.18,1.1,.26,1.65,.06,.39-.14,.7-.49,.77-.38,.08-.67-.12-.75-.54-.11-.55-.19-1.1-.28-1.65-.02-.1-.03-.22-.1-.28-.95-.96-1.91-1.91-2.91-2.91-.31,.32-.59,.62-.89,.91-.39,.39-.72,.39-1.11,0-1.01-1-2.01-2.01-3.01-3.01-.35-.35-.39-.71-.12-.99,.28-.29,.65-.26,1.02,.11,.88,.88,1.76,1.77,2.63,2.65L12.46,3.85c-.07-.07-.15-.17-.23-.26-.8-.8-1.6-1.6-2.4-2.4-.36-.36-.39-.74-.1-1.02,.28-.26,.64-.22,.99,.13,1.01,1,2.01,2,3.01,3.01,.39,.39,.39,.71,0,1.11-.44,.44-.89,.88-1.38,1.36Z"/></svg>