<?xml version="1.0" encoding="UTF-8"?><svg id="Layer_1" xmlns="http://www.w3.org/2000/svg" viewBox="0 0 47.5 16.05"><defs><style>.cls-1{fill:#871e2e;}</style></defs><g><path d="M2.04,15.14l.33,.08c-.07,.27-.19,.48-.37,.62s-.4,.21-.66,.21-.48-.05-.65-.16c-.17-.11-.3-.27-.38-.47-.09-.21-.13-.43-.13-.67,0-.26,.05-.48,.15-.68s.24-.34,.42-.44c.18-.1,.38-.15,.6-.15,.25,0,.46,.06,.63,.19,.17,.13,.29,.3,.35,.53l-.32,.08c-.06-.18-.14-.31-.25-.39-.11-.08-.25-.12-.41-.12-.19,0-.35,.05-.48,.14-.13,.09-.22,.21-.27,.37s-.08,.31-.08,.48c0,.21,.03,.4,.09,.55s.16,.27,.29,.35,.27,.12,.42,.12c.18,0,.34-.05,.47-.16,.13-.11,.21-.26,.26-.47Z"/><path d="M3.96,15.43l.31,.04c-.05,.18-.14,.33-.28,.43s-.31,.15-.51,.15c-.26,0-.47-.08-.63-.24s-.23-.39-.23-.68,.08-.54,.23-.7,.36-.25,.61-.25,.44,.08,.59,.25c.15,.16,.23,.39,.23,.69,0,.02,0,.05,0,.08h-1.34c.01,.2,.07,.35,.17,.45,.1,.1,.23,.16,.38,.16,.11,0,.21-.03,.29-.09s.14-.15,.19-.28Zm-1-.49h1c-.01-.15-.05-.26-.12-.34-.1-.12-.22-.18-.38-.18-.14,0-.26,.05-.35,.14-.1,.09-.15,.22-.16,.38Z"/><path d="M4.66,16.01v-1.8h.27v.27c.07-.13,.13-.21,.19-.25,.06-.04,.12-.06,.2-.06,.1,0,.21,.03,.31,.1l-.1,.28c-.07-.04-.15-.07-.22-.07-.07,0-.13,.02-.18,.06s-.09,.1-.11,.17c-.03,.11-.05,.23-.05,.36v.94h-.3Z"/><path d="M6.48,15.74l.04,.27c-.09,.02-.16,.03-.23,.03-.11,0-.2-.02-.26-.05-.06-.04-.1-.08-.13-.14-.02-.06-.04-.18-.04-.36v-1.03h-.22v-.24h.22v-.45l.3-.18v.63h.31v.24h-.31v1.05c0,.09,0,.14,.02,.17s.03,.04,.05,.06,.06,.02,.1,.02c.03,0,.08,0,.13-.01Z"/><path d="M6.78,13.88v-.35h.3v.35h-.3Zm0,2.13v-1.8h.3v1.8h-.3Z"/><path d="M7.62,16.01v-1.56h-.27v-.24h.27v-.19c0-.12,.01-.21,.03-.27,.03-.08,.08-.14,.15-.19,.07-.05,.18-.07,.31-.07,.09,0,.18,0,.28,.03l-.05,.27c-.06-.01-.12-.02-.18-.02-.09,0-.16,.02-.2,.06-.04,.04-.06,.11-.06,.22v.17h.35v.24h-.35v1.56h-.3Z"/><path d="M8.51,13.88v-.35h.3v.35h-.3Zm0,2.13v-1.8h.3v1.8h-.3Z"/><path d="M10.45,15.35l.3,.04c-.03,.21-.12,.37-.25,.48-.13,.12-.3,.18-.5,.18-.25,0-.44-.08-.59-.24-.15-.16-.22-.39-.22-.69,0-.19,.03-.36,.1-.51s.16-.25,.29-.33c.13-.07,.27-.11,.43-.11,.2,0,.35,.05,.48,.15,.12,.1,.2,.24,.24,.42l-.3,.05c-.03-.12-.08-.21-.15-.27s-.16-.09-.26-.09c-.15,0-.28,.06-.37,.17-.1,.11-.14,.28-.14,.52s.05,.42,.14,.53c.09,.11,.21,.16,.36,.16,.12,0,.22-.04,.3-.11,.08-.07,.13-.19,.15-.34Z"/><path d="M12.19,15.79c-.11,.1-.22,.16-.33,.2-.1,.04-.22,.06-.34,.06-.2,0-.35-.05-.46-.15-.11-.1-.16-.22-.16-.37,0-.09,.02-.17,.06-.24,.04-.07,.09-.13,.16-.18s.14-.08,.22-.1c.06-.02,.15-.03,.27-.05,.25-.03,.43-.06,.54-.1v-.08c0-.12-.03-.21-.08-.26-.08-.07-.19-.1-.35-.1-.14,0-.25,.03-.32,.08-.07,.05-.12,.14-.15,.27l-.3-.04c.03-.13,.07-.23,.13-.31,.06-.08,.15-.14,.27-.18s.25-.06,.41-.06,.28,.02,.37,.05c.1,.04,.17,.08,.21,.14,.05,.05,.08,.12,.1,.21,0,.05,.02,.15,.02,.28v.41c0,.28,0,.46,.02,.54,.01,.08,.04,.15,.08,.22h-.32c-.03-.06-.05-.14-.06-.22Zm-.03-.68c-.11,.05-.28,.08-.5,.12-.13,.02-.21,.04-.27,.06-.05,.02-.09,.05-.12,.1-.03,.04-.04,.09-.04,.14,0,.08,.03,.15,.09,.2,.06,.05,.15,.08,.27,.08s.22-.03,.31-.08c.09-.05,.16-.12,.2-.21,.03-.07,.05-.17,.05-.3v-.11Z"/><path d="M13.61,15.74l.04,.27c-.09,.02-.16,.03-.23,.03-.11,0-.2-.02-.26-.05-.06-.04-.1-.08-.13-.14-.02-.06-.04-.18-.04-.36v-1.03h-.22v-.24h.22v-.45l.3-.18v.63h.31v.24h-.31v1.05c0,.09,0,.14,.02,.17s.03,.04,.05,.06,.06,.02,.1,.02c.03,0,.08,0,.13-.01Z"/><path d="M15.13,15.43l.31,.04c-.05,.18-.14,.33-.28,.43s-.31,.15-.51,.15c-.26,0-.47-.08-.63-.24s-.23-.39-.23-.68,.08-.54,.23-.7,.36-.25,.61-.25,.44,.08,.59,.25c.15,.16,.23,.39,.23,.69,0,.02,0,.05,0,.08h-1.34c.01,.2,.07,.35,.17,.45,.1,.1,.23,.16,.38,.16,.11,0,.21-.03,.29-.09s.14-.15,.19-.28Zm-1-.49h1c-.01-.15-.05-.26-.12-.34-.1-.12-.22-.18-.38-.18-.14,0-.26,.05-.35,.14-.1,.09-.15,.22-.16,.38Z"/><path d="M16.89,16.01v-2.48h.33v2.48h-.33Z"/><path d="M17.76,16.01v-1.8h.27v.25c.13-.2,.32-.3,.57-.3,.11,0,.21,.02,.3,.06s.16,.09,.2,.15c.05,.06,.08,.14,.09,.22,.01,.06,.02,.16,.02,.3v1.11h-.3v-1.09c0-.12-.01-.22-.04-.28-.02-.06-.07-.11-.13-.15-.06-.04-.13-.06-.21-.06-.13,0-.24,.04-.34,.12-.09,.08-.14,.24-.14,.47v.98h-.3Z"/><path d="M20.35,15.74l.04,.27c-.09,.02-.16,.03-.23,.03-.11,0-.2-.02-.26-.05-.06-.04-.1-.08-.13-.14-.02-.06-.04-.18-.04-.36v-1.03h-.22v-.24h.22v-.45l.3-.18v.63h.31v.24h-.31v1.05c0,.09,0,.14,.02,.17s.03,.04,.05,.06,.06,.02,.1,.02c.03,0,.08,0,.13-.01Z"/><path d="M21.88,15.43l.31,.04c-.05,.18-.14,.33-.28,.43s-.31,.15-.51,.15c-.26,0-.47-.08-.63-.24s-.23-.39-.23-.68,.08-.54,.23-.7,.36-.25,.61-.25,.44,.08,.59,.25c.15,.16,.23,.39,.23,.69,0,.02,0,.05,0,.08h-1.34c.01,.2,.07,.35,.17,.45,.1,.1,.23,.16,.38,.16,.11,0,.21-.03,.29-.09s.14-.15,.19-.28Zm-1-.49h1c-.01-.15-.05-.26-.12-.34-.1-.12-.22-.18-.38-.18-.14,0-.26,.05-.35,.14-.1,.09-.15,.22-.16,.38Z"/><path d="M22.57,16.01v-1.8h.27v.27c.07-.13,.13-.21,.19-.25,.06-.04,.12-.06,.2-.06,.1,0,.21,.03,.31,.1l-.1,.28c-.07-.04-.15-.07-.22-.07-.07,0-.13,.02-.18,.06s-.09,.1-.11,.17c-.03,.11-.05,.23-.05,.36v.94h-.3Z"/><path d="M23.73,16.01v-1.8h.27v.25c.13-.2,.32-.3,.57-.3,.11,0,.21,.02,.3,.06s.16,.09,.2,.15c.05,.06,.08,.14,.09,.22,.01,.06,.02,.16,.02,.3v1.11h-.3v-1.09c0-.12-.01-.22-.04-.28-.02-.06-.07-.11-.13-.15-.06-.04-.13-.06-.21-.06-.13,0-.24,.04-.34,.12-.09,.08-.14,.24-.14,.47v.98h-.3Z"/><path d="M26.83,15.79c-.11,.1-.22,.16-.33,.2-.1,.04-.22,.06-.34,.06-.2,0-.35-.05-.46-.15-.11-.1-.16-.22-.16-.37,0-.09,.02-.17,.06-.24,.04-.07,.09-.13,.16-.18s.14-.08,.22-.1c.06-.02,.15-.03,.27-.05,.25-.03,.43-.06,.54-.1v-.08c0-.12-.03-.21-.08-.26-.08-.07-.19-.1-.35-.1-.14,0-.25,.03-.32,.08-.07,.05-.12,.14-.15,.27l-.3-.04c.03-.13,.07-.23,.13-.31,.06-.08,.15-.14,.27-.18s.25-.06,.41-.06,.28,.02,.37,.05c.1,.04,.17,.08,.21,.14,.05,.05,.08,.12,.1,.21,0,.05,.02,.15,.02,.28v.41c0,.28,0,.46,.02,.54,.01,.08,.04,.15,.08,.22h-.32c-.03-.06-.05-.14-.06-.22Zm-.03-.68c-.11,.05-.28,.08-.5,.12-.13,.02-.21,.04-.27,.06-.05,.02-.09,.05-.12,.1-.03,.04-.04,.09-.04,.14,0,.08,.03,.15,.09,.2,.06,.05,.15,.08,.27,.08s.22-.03,.31-.08c.09-.05,.16-.12,.2-.21,.03-.07,.05-.17,.05-.3v-.11Z"/><path d="M28.25,15.74l.04,.27c-.09,.02-.16,.03-.23,.03-.11,0-.2-.02-.26-.05-.06-.04-.1-.08-.13-.14-.02-.06-.04-.18-.04-.36v-1.03h-.22v-.24h.22v-.45l.3-.18v.63h.31v.24h-.31v1.05c0,.09,0,.14,.02,.17s.03,.04,.05,.06,.06,.02,.1,.02c.03,0,.08,0,.13-.01Z"/><path d="M28.55,13.88v-.35h.3v.35h-.3Zm0,2.13v-1.8h.3v1.8h-.3Z"/><path d="M29.2,15.11c0-.33,.09-.58,.28-.74,.15-.13,.34-.2,.57-.2,.25,0,.45,.08,.61,.24,.16,.16,.23,.38,.23,.67,0,.23-.03,.41-.1,.55-.07,.13-.17,.24-.3,.31-.13,.07-.28,.11-.43,.11-.25,0-.46-.08-.61-.24-.15-.16-.23-.39-.23-.7Zm.31,0c0,.23,.05,.4,.15,.52,.1,.11,.23,.17,.38,.17s.28-.06,.38-.17c.1-.12,.15-.29,.15-.53,0-.22-.05-.39-.15-.5s-.23-.17-.38-.17-.28,.06-.38,.17c-.1,.11-.15,.29-.15,.52Z"/><path d="M31.25,16.01v-1.8h.27v.25c.13-.2,.32-.3,.57-.3,.11,0,.21,.02,.3,.06s.16,.09,.2,.15c.05,.06,.08,.14,.09,.22,.01,.06,.02,.16,.02,.3v1.11h-.3v-1.09c0-.12-.01-.22-.04-.28-.02-.06-.07-.11-.13-.15-.06-.04-.13-.06-.21-.06-.13,0-.24,.04-.34,.12-.09,.08-.14,.24-.14,.47v.98h-.3Z"/><path d="M34.35,15.79c-.11,.1-.22,.16-.33,.2-.1,.04-.22,.06-.34,.06-.2,0-.35-.05-.46-.15-.11-.1-.16-.22-.16-.37,0-.09,.02-.17,.06-.24,.04-.07,.09-.13,.16-.18s.14-.08,.22-.1c.06-.02,.15-.03,.27-.05,.25-.03,.43-.06,.54-.1v-.08c0-.12-.03-.21-.08-.26-.08-.07-.19-.1-.35-.1-.14,0-.25,.03-.32,.08-.07,.05-.12,.14-.15,.27l-.3-.04c.03-.13,.07-.23,.13-.31,.06-.08,.15-.14,.27-.18s.25-.06,.41-.06,.28,.02,.37,.05c.1,.04,.17,.08,.21,.14,.05,.05,.08,.12,.1,.21,0,.05,.02,.15,.02,.28v.41c0,.28,0,.46,.02,.54,.01,.08,.04,.15,.08,.22h-.32c-.03-.06-.05-.14-.06-.22Zm-.03-.68c-.11,.05-.28,.08-.5,.12-.13,.02-.21,.04-.27,.06-.05,.02-.09,.05-.12,.1-.03,.04-.04,.09-.04,.14,0,.08,.03,.15,.09,.2,.06,.05,.15,.08,.27,.08s.22-.03,.31-.08c.09-.05,.16-.12,.2-.21,.03-.07,.05-.17,.05-.3v-.11Z"/><path d="M35.09,16.01v-2.48h.3v2.48h-.3Z"/><path d="M36.41,16.01l.95-2.48h.35l1.02,2.48h-.37l-.29-.75h-1.04l-.27,.75h-.35Zm.72-1.02h.84l-.26-.69c-.08-.21-.14-.38-.18-.51-.03,.16-.08,.32-.13,.47l-.27,.73Z"/><path d="M40.13,16.01v-.26c-.14,.2-.33,.3-.57,.3-.11,0-.21-.02-.3-.06-.09-.04-.16-.09-.2-.15-.04-.06-.08-.14-.09-.23-.01-.06-.02-.15-.02-.28v-1.11h.3v1c0,.16,0,.27,.02,.32,.02,.08,.06,.14,.12,.19s.14,.07,.23,.07,.18-.02,.26-.07,.14-.11,.17-.19c.03-.08,.05-.2,.05-.35v-.96h.3v1.8h-.27Z"/><path d="M42.05,16.01v-.23c-.11,.18-.28,.27-.5,.27-.14,0-.28-.04-.4-.12s-.21-.19-.28-.33c-.07-.14-.1-.3-.1-.49s.03-.34,.09-.49c.06-.15,.15-.26,.27-.34,.12-.08,.25-.12,.4-.12,.11,0,.2,.02,.29,.07,.08,.05,.15,.11,.21,.18v-.89h.3v2.48h-.28Zm-.96-.9c0,.23,.05,.4,.15,.52s.21,.17,.34,.17,.25-.05,.34-.16c.09-.11,.14-.28,.14-.5,0-.25-.05-.43-.14-.54s-.21-.17-.35-.17-.25,.06-.34,.17-.14,.29-.14,.52Z"/><path d="M42.81,13.88v-.35h.3v.35h-.3Zm0,2.13v-1.8h.3v1.8h-.3Z"/><path d="M44.25,15.74l.04,.27c-.09,.02-.16,.03-.23,.03-.11,0-.2-.02-.26-.05-.06-.04-.1-.08-.13-.14-.02-.06-.04-.18-.04-.36v-1.03h-.22v-.24h.22v-.45l.3-.18v.63h.31v.24h-.31v1.05c0,.09,0,.14,.02,.17s.03,.04,.05,.06,.06,.02,.1,.02c.03,0,.08,0,.13-.01Z"/><path d="M44.43,15.11c0-.33,.09-.58,.28-.74,.15-.13,.34-.2,.57-.2,.25,0,.45,.08,.61,.24,.16,.16,.23,.38,.23,.67,0,.23-.03,.41-.1,.55-.07,.13-.17,.24-.3,.31-.13,.07-.28,.11-.43,.11-.25,0-.46-.08-.61-.24-.15-.16-.23-.39-.23-.7Zm.31,0c0,.23,.05,.4,.15,.52,.1,.11,.23,.17,.38,.17s.28-.06,.38-.17c.1-.12,.15-.29,.15-.53,0-.22-.05-.39-.15-.5s-.23-.17-.38-.17-.28,.06-.38,.17c-.1,.11-.15,.29-.15,.52Z"/><path d="M46.47,16.01v-1.8h.27v.27c.07-.13,.13-.21,.19-.25,.06-.04,.12-.06,.2-.06,.1,0,.21,.03,.31,.1l-.1,.28c-.07-.04-.15-.07-.22-.07-.07,0-.13,.02-.18,.06s-.09,.1-.11,.17c-.03,.11-.05,.23-.05,.36v.94h-.3Z"/></g><g><g><path d="M20.31,6.77l2.33,.7c-.16,.65-.4,1.2-.74,1.63s-.75,.77-1.25,.99-1.13,.33-1.9,.33c-.93,0-1.7-.14-2.29-.41-.59-.27-1.1-.75-1.53-1.43-.43-.68-.64-1.56-.64-2.62,0-1.42,.38-2.51,1.13-3.28,.76-.76,1.83-1.14,3.21-1.14,1.08,0,1.93,.22,2.55,.66s1.08,1.11,1.38,2.02l-2.34,.52c-.08-.26-.17-.45-.26-.57-.15-.2-.33-.36-.54-.47s-.46-.16-.72-.16c-.6,0-1.06,.24-1.38,.73-.24,.36-.36,.92-.36,1.69,0,.95,.14,1.6,.43,1.96,.29,.35,.7,.53,1.22,.53s.89-.14,1.15-.43,.45-.7,.57-1.24Z"/><path d="M27.01,5.99c0,.31-.11,.58-.33,.8-.22,.22-.49,.33-.8,.33s-.58-.11-.8-.33c-.22-.22-.33-.49-.33-.8s.11-.58,.33-.8,.49-.33,.8-.33,.58,.11,.8,.33,.33,.49,.33,.8Z"/><path d="M29.24,1.7h2.66V10.29h-2.66V1.7Z"/><path d="M36.89,5.99c0,.31-.11,.58-.33,.8-.22,.22-.49,.33-.8,.33s-.58-.11-.8-.33c-.22-.22-.33-.49-.33-.8s.11-.58,.33-.8,.49-.33,.8-.33,.58,.11,.8,.33,.33,.49,.33,.8Z"/><path d="M44.29,8.87h-3.01l-.42,1.42h-2.71l3.23-8.59h2.9l3.23,8.59h-2.78l-.43-1.42Zm-.55-1.86l-.95-3.09-.94,3.09h1.89Z"/></g><g><path class="cls-1" d="M0,5.65s.03,.09,0,.14v-.14Z"/><path class="cls-1" d="M0,6.25s.03,.03,0,.05v-.05Z"/><g><path class="cls-1" d="M1.07,7.82c-.39-.98-.46-1.99-.23-3.03C1.41,2.21,3.92,.43,6.57,.74c.98,.12,1.85,.49,2.63,1.09,.07,.06,.08,.09,.04,.17-.19,.4-.15,.79,.13,1.13,.29,.35,.66,.46,1.1,.34,.55-.16,.87-.71,.73-1.27-.14-.55-.68-.88-1.24-.77-.06,.01-.11,0-.17-.04-.15-.13-.31-.25-.47-.36-.74-.51-1.56-.84-2.46-.98-.15-.02-.3-.02-.44-.07h-.14c-.06,.04-.12,.03-.19,0h-.28s-.09,.04-.14,0h-.19c-.12,.02-.25,.01-.37,.03-.74,.11-1.44,.35-2.09,.72-.7,.4-1.3,.92-1.8,1.57C.67,3.02,.3,3.82,.11,4.69,.05,4.95,.02,5.22,0,5.48v.16S.02,5.74,0,5.79v.47S.01,6.28,0,6.3v.14s.02,.02,.02,.03c.05,.56,.19,1.1,.39,1.63,.03,.09,.07,.1,.15,.06,.14-.06,.28-.12,.43-.17,.1-.03,.11-.08,.07-.17ZM10.18,2.12c.19,0,.35,.17,.34,.36,0,.19-.17,.35-.36,.34-.18,0-.35-.17-.34-.36,0-.19,.17-.35,.36-.34Z"/><path class="cls-1" d="M6.28,0h-.19c.06,.02,.12,.02,.19,0Z"/><path class="cls-1" d="M5.81,0h-.14s.09,.02,.14,0Z"/><path class="cls-1" d="M5.98,2.12c-2.13,0-3.85,1.72-3.85,3.84,0,2.13,1.72,3.85,3.84,3.86,2.13,0,3.85-1.72,3.86-3.84,0-2.13-1.72-3.86-3.85-3.86Zm-.84,2.04c.11-.39,.24-.78,.49-1.11,.23-.31,.47-.31,.7,0,.26,.34,.38,.75,.5,1.16-.55,0-1.09,0-1.63,0-.04,0-.07,0-.05-.06Zm-.34-1.11c-.14,.29-.25,.57-.32,.86-.01,.04-.03,.09-.04,.13q-.04,.17-.21,.17h-.87c.37-.53,.83-.91,1.44-1.17Zm-1.71,3.97c-.06,0-.09-.01-.11-.07-.21-.65-.21-1.3,0-1.95,.02-.06,.05-.08,.11-.07,.19,0,.37,0,.56,0s.36,0,.54,0c.07,0,.1,.01,.09,.09-.05,.38-.05,.77-.05,1.15,0,.26,.02,.51,.05,.77,0,.06,0,.09-.08,.09-.37,0-.74,0-1.11,0Zm.27,.7c.34,0,.67,0,.99,0,.04,0,.05,.02,.06,.05,.08,.38,.2,.74,.38,1.12-.6-.25-1.07-.63-1.44-1.17Zm2.96,1.16c-.24,.31-.47,.32-.7,0-.25-.33-.37-.72-.48-1.11-.02-.05,.01-.06,.05-.06,.54,0,1.08,0,1.63,0-.12,.42-.25,.82-.5,1.16Zm.69-2.58c-.01,.21-.02,.42-.05,.63,0,.08-.04,.09-.12,.09-.29,0-.58,0-.87,0s-.59,0-.89,0c-.07,0-.1,0-.11-.09-.07-.56-.08-1.11-.03-1.67,0-.09,.02-.18,.03-.27,0-.06,.02-.08,.08-.08,.61,0,1.21,0,1.82,0,.06,0,.07,.02,.08,.07,.05,.44,.08,.87,.05,1.31Zm1.56-2.1s-.05,.02-.07,.02c-.29,0-.58,0-.87,0-.04,0-.08,.01-.09-.05-.08-.38-.2-.74-.39-1.12,.61,.26,1.07,.64,1.43,1.15Zm-1.43,4.69c.18-.37,.3-.73,.38-1.1,.01-.06,.04-.07,.09-.07,.31,0,.63,0,.96,0-.36,.53-.83,.91-1.44,1.17Zm1.82-3.89c.2,.65,.2,1.29,0,1.93-.02,.06-.04,.09-.11,.09-.37,0-.74,0-1.11,0-.07,0-.08-.02-.08-.09,.04-.38,.05-.76,.05-1.14,0-.25-.02-.5-.05-.76-.01-.09,0-.13,.11-.12,.17,.01,.35,0,.52,0s.37,0,.55,0c.07,0,.09,.02,.11,.08Z"/><path class="cls-1" d="M11.52,3.82c-.03-.07-.06-.07-.12-.04-.14,.06-.28,.12-.43,.17-.11,.04-.13,.08-.09,.19,.4,1.03,.47,2.08,.19,3.15-.67,2.58-3.13,4.23-5.7,3.91-.98-.12-1.85-.49-2.63-1.09-.07-.05-.08-.09-.04-.16,.19-.4,.16-.78-.11-1.12-.27-.34-.63-.46-1.06-.37-.53,.12-.9,.66-.8,1.18,.11,.58,.62,.97,1.18,.88,.11-.02,.2-.03,.3,.06,1.49,1.19,3.17,1.63,5.04,1.23,2.72-.58,4.69-3.03,4.7-5.63,0-.94-.16-1.66-.42-2.36ZM1.76,9.82c-.19,0-.35-.18-.34-.36,0-.19,.18-.35,.36-.34,.19,0,.35,.18,.34,.36,0,.19-.18,.35-.36,.34Z"/></g></g></g></svg>