<?xml version="1.0" encoding="utf-8"?>
<!-- Generator: Adobe Illustrator 26.3.1, SVG Export Plug-In . SVG Version: 6.00 Build 0)  -->
<svg version="1.1" id="Layer_1" xmlns="http://www.w3.org/2000/svg" xmlns:xlink="http://www.w3.org/1999/xlink" x="0px" y="0px"
	 viewBox="0 0 30 30" style="enable-background:new 0 0 30 30;" xml:space="preserve">
<style type="text/css">
	.st0{fill-rule:evenodd;clip-rule:evenodd;fill:#FFB600;}
	.st1{fill:#1B1C2B;}
</style>
<g>
	<g id="Artboard_1">
		<g id="Group_12920" transform="translate(-2346.6 -2330)">
			<path id="Path_51" class="st0" d="M2376.3,2335.4c-1.6-0.6-3.3-0.6-4.8,0c-7.5,2.7-15.1,16.2-16.8,19.3l-7.6-11.4l7.1,4.2
				c3.6-4.8,8-8.9,12.9-12.1C2371.1,2333,2376.3,2335.4,2376.3,2335.4"/>
			<path id="Path_52" class="st1" d="M2352.3,2340.7c1.3-3.1,4-5.4,7.3-6c0.7-0.6,1.4-1.2,2.1-1.7c0,0-0.1,0-0.1,0
				c-4.6,0-8.8,2.7-10.6,7L2352.3,2340.7z"/>
			<path id="Path_53" class="st1" d="M2371.1,2341.2c1.8,5.2-0.9,11-6.2,12.8c-1.1,0.4-2.2,0.6-3.3,0.6c-0.4,0-0.8,0-1.1-0.1
				c-0.3,0.4-0.5,0.9-0.8,1.4c0.6,0.1,1.3,0.2,1.9,0.2c6.4,0,11.5-5.2,11.5-11.5c0-1.4-0.3-2.8-0.8-4.1
				C2372,2340.7,2371.5,2340.9,2371.1,2341.2"/>
		</g>
	</g>
</g>
</svg>
