<?xml version="1.0" encoding="utf-8"?>
<!-- Generator: Adobe Illustrator 26.3.1, SVG Export Plug-In . SVG Version: 6.00 Build 0)  -->
<svg version="1.1" id="Layer_1" xmlns="http://www.w3.org/2000/svg" xmlns:xlink="http://www.w3.org/1999/xlink" x="0px" y="0px"
	 viewBox="0 0 219 91" style="enable-background:new 0 0 219 91;" xml:space="preserve">
<style type="text/css">
	.st0{fill:#FFFFFF;}
	.st1{fill:#FFB600;}
	.st2{fill-rule:evenodd;clip-rule:evenodd;fill:#FFB600;}
</style>
<g>
	<g id="Artboard_2">
		<g id="Group_12919" transform="translate(-2427 -2209)">
			<path id="Path_33" class="st0" d="M2470.2,2288.2c-0.9,0.2-1.7,0.3-2.6,0.3c-3.5,0-5.3-1.7-5.3-5.1c0-3.2,1.8-4.7,5.3-4.7
				c0.9,0,1.8,0.1,2.6,0.3v1.4c-0.9-0.2-1.8-0.3-2.7-0.3c-2.3,0-3.4,1.1-3.4,3.3c0,2.5,1.1,3.7,3.4,3.7c0.9,0,1.8-0.1,2.7-0.3
				V2288.2z"/>
			<path id="Path_34" class="st0" d="M2478.5,2283.5c0-3.3,1.6-4.9,4.7-4.9c3.1,0,4.7,1.6,4.7,4.9c0,3.3-1.6,4.9-4.7,4.9
				S2478.5,2286.8,2478.5,2283.5 M2483.2,2287c2,0,3-1.2,3-3.6c0-2.3-1-3.5-3-3.5s-3,1.2-3,3.5
				C2480.2,2285.8,2481.2,2287,2483.2,2287"/>
			<path id="Path_35" class="st0" d="M2496.2,2288.4v-9.8h1.2l0.3,1.3c0.9-0.8,2.1-1.3,3.3-1.3c2.5,0,3.7,1.2,3.7,3.7v6.2h-1.7v-6.2
				c0.2-1.1-0.6-2-1.6-2.2c-0.2,0-0.4,0-0.5,0c-1.1,0-2.1,0.5-2.8,1.2v7.2L2496.2,2288.4z"/>
			<path id="Path_36" class="st0" d="M2513.3,2288v-1.5c1.1,0.4,2.3,0.6,3.5,0.6c1.6,0,2.4-0.5,2.4-1.4s-0.5-1.3-1.6-1.3h-1.4
				c-2.1,0-3.2-1-3.2-2.9s1.4-2.8,4.1-2.8c1.2,0,2.4,0.2,3.5,0.5v1.5c-1.1-0.4-2.3-0.6-3.5-0.6c-1.6,0-2.5,0.5-2.5,1.4
				s0.5,1.3,1.5,1.3h1.4c2.3,0,3.4,1,3.4,2.9s-1.4,2.8-4.1,2.8C2515.6,2288.4,2514.5,2288.3,2513.3,2288"/>
			<path id="Path_37" class="st0" d="M2537.7,2278.6v9.8h-1.2l-0.3-1.3c-1,0.8-2.3,1.2-3.6,1.3c-2.3,0-3.4-1.2-3.4-3.7v-6.2h1.7v6.2
				c-0.2,1.1,0.6,2,1.6,2.2c0.2,0,0.4,0,0.5,0c1.1,0,2.1-0.5,2.8-1.2v-7.2L2537.7,2278.6L2537.7,2278.6z"/>
			<rect id="Rectangle_4364" x="2546" y="2275" class="st0" width="1.7" height="13.4"/>
			<path id="Path_38" class="st0" d="M2556,2277h1.1l0.4,1.6h2.7v1.4h-2.4v5.7c0,0.9,0.4,1.4,1.2,1.4h1.2v1.4h-1.6
				c-1.7,0-2.5-0.9-2.5-2.7L2556,2277z"/>
			<path id="Path_39" class="st0" d="M2570.2,2276.7h-1.7v-1.6h1.7V2276.7z M2570.2,2288.4h-1.7v-9.8h1.7V2288.4z"/>
			<path id="Path_40" class="st0" d="M2578.5,2288.4v-9.8h1.2l0.3,1.3c0.9-0.8,2.1-1.3,3.3-1.3c2.5,0,3.7,1.2,3.7,3.7v6.2h-1.7v-6.2
				c0.2-1.1-0.6-2-1.6-2.2c-0.2,0-0.4,0-0.5,0c-1.1,0-2.1,0.5-2.8,1.2v7.2L2578.5,2288.4L2578.5,2288.4z"/>
			<path id="Path_41" class="st0" d="M2604.1,2288.4c0,2.4-1.5,3.6-4.5,3.6c-1.1,0-2.2-0.1-3.2-0.5v-1.4c1.1,0.3,2.1,0.5,3.2,0.5
				c1.9,0,2.8-0.7,2.8-2.2v-0.5c-0.8,0.3-1.6,0.5-2.4,0.5c-3.1,0-4.7-1.7-4.7-5c0-3.2,1.6-4.9,4.9-4.9c1.3,0,2.6,0.1,3.9,0.4V2288.4
				z M2602.3,2280.3c-0.7-0.2-1.5-0.2-2.2-0.2c-2.1,0-3.1,1.1-3.1,3.4c0,2.3,1,3.5,3,3.5c0.8,0,1.6-0.2,2.4-0.5L2602.3,2280.3z"/>
			<path id="Path_42" class="st0" d="M2630.4,2270.8h-190l-4.4-1.9h190L2630.4,2270.8z"/>
			<path id="Path_43" class="st1" d="M2451.1,2246.4c0-0.7-0.1-1.4-0.4-2c-0.3-0.5-0.7-0.9-1.1-1.2c-0.6-0.3-1.2-0.5-1.8-0.6
				c-0.8-0.1-1.6-0.2-2.4-0.2c-2,0-4.1,0.4-6,1.1c-0.4-0.8-0.8-1.7-1.1-2.6c-0.3-0.9-0.4-1.9-0.4-2.9c1.5-0.5,3-0.9,4.6-1.1
				c1.4-0.2,2.8-0.4,4.3-0.4c3.6,0,6.4,0.9,8.5,2.6c2,1.7,3,4.5,3,8.3v15.6c-1.5,0.4-2.9,0.8-4.4,1.1c-1.9,0.4-3.9,0.5-5.9,0.5
				c-1.6,0-3.3-0.1-4.9-0.5c-1.4-0.3-2.6-0.8-3.8-1.6c-1-0.7-1.9-1.7-2.5-2.8c-0.6-1.3-0.9-2.8-0.9-4.2c-0.1-1.5,0.3-2.9,1.1-4.2
				c0.7-1.1,1.6-2,2.8-2.7s2.4-1.2,3.8-1.5c1.4-0.3,2.8-0.4,4.2-0.4c1,0,2.1,0.1,3.3,0.2L2451.1,2246.4z M2451.1,2251.7
				c-0.4-0.1-0.9-0.1-1.4-0.2c-0.4,0-0.9-0.1-1.3-0.1c-1.4-0.1-2.8,0.2-4,0.9c-1,0.6-1.6,1.8-1.5,2.9c0,0.7,0.2,1.5,0.6,2.1
				c0.4,0.5,0.8,0.8,1.4,1.1c0.5,0.2,1.1,0.4,1.7,0.4c0.6,0.1,1.1,0.1,1.6,0.1s1,0,1.6-0.1c0.5-0.1,1-0.2,1.4-0.2L2451.1,2251.7z"/>
			<path id="Path_44" class="st1" d="M2468.3,2237.1c2.4-0.4,5-0.4,7.4,0v14.3c0,1.2,0.1,2.4,0.3,3.5c0.2,0.8,0.5,1.6,1,2.2
				c0.5,0.5,1.1,0.9,1.7,1.1c0.8,0.2,1.6,0.4,2.4,0.3c1.1,0,2.2-0.1,3.2-0.4V2237c1.2-0.2,2.4-0.3,3.6-0.3c1.2,0,2.5,0.1,3.7,0.3
				v25.9c-1.4,0.5-2.9,0.8-4.4,1.1c-1.9,0.4-3.8,0.6-5.7,0.5c-1.7,0-3.4-0.1-5.1-0.4c-1.6-0.2-3-0.8-4.3-1.8s-2.3-2.4-2.9-4
				c-0.8-2.2-1.2-4.6-1.1-6.9v-14.3H2468.3z"/>
			<path id="Path_45" class="st1" d="M2518.6,2226c0.6-0.1,1.2-0.2,1.8-0.2s1.2-0.1,1.8-0.1s1.2,0,1.8,0.1c0.6,0,1.3,0.1,1.9,0.2
				v37.2c-1.6,0.5-3.3,0.9-5,1.1c-2,0.3-4.1,0.4-6.1,0.4c-1.8,0-3.6-0.2-5.3-0.8c-1.6-0.5-3.2-1.3-4.5-2.4c-1.3-1.2-2.4-2.6-3-4.2
				c-0.8-2-1.2-4.2-1.1-6.4c0-1.9,0.3-3.8,1-5.6c0.6-1.7,1.5-3.2,2.8-4.6c1.2-1.3,2.7-2.3,4.4-3c1.8-0.8,3.7-1.1,5.7-1.1
				c0.6,0,1.3,0,2,0.1c0.7,0,1.3,0.2,2,0.3L2518.6,2226z M2518.6,2242.7c-0.6-0.1-1.1-0.3-1.7-0.3c-0.5-0.1-1.1-0.1-1.6-0.1
				c-1,0-2.1,0.2-3,0.7c-0.8,0.5-1.6,1.1-2.1,1.9c-0.6,0.8-1,1.8-1.2,2.8c-0.3,1.1-0.4,2.2-0.4,3.3c0,1.2,0.1,2.5,0.5,3.6
				c0.3,0.9,0.8,1.7,1.4,2.4c0.6,0.6,1.4,1,2.2,1.3c0.9,0.3,1.8,0.4,2.7,0.4c0.5,0,1.1,0,1.6-0.1s1.1-0.2,1.6-0.3V2242.7z"/>
			<path id="Path_46" class="st1" d="M2557.6,2242.8h-3.4l-0.3-1l9.7-12.5h1.2v7.9h6.3c0.1,0.5,0.2,0.9,0.2,1.4
				c0,0.4,0.1,0.9,0.1,1.3c0,0.5,0,1-0.1,1.4c0,0.5-0.1,1-0.2,1.5h-6.3v10.6c0,0.9,0.1,1.8,0.3,2.6c0.1,0.6,0.4,1.1,0.8,1.6
				c0.3,0.4,0.7,0.6,1.2,0.8c0.6,0.1,1.1,0.2,1.7,0.2c0.5,0,1,0,1.5-0.1s0.9-0.2,1.3-0.2c0.2,0.7,0.4,1.4,0.5,2.1
				c0.1,0.6,0.1,1.3,0.2,1.9c0,0.4,0,0.7,0,1s0,0.5-0.1,0.8c-1.6,0.4-3.3,0.6-4.9,0.6c-3.2,0-5.6-0.7-7.2-2.2s-2.5-3.9-2.5-7.2
				V2242.8z"/>
			<path id="Path_47" class="st0" d="M2594.2,2246.4c0-0.7-0.1-1.4-0.4-2c-0.3-0.5-0.7-0.9-1.1-1.2c-0.6-0.3-1.2-0.5-1.8-0.6
				c-0.8-0.1-1.6-0.2-2.4-0.2c-2,0-4.1,0.4-6,1.1c-0.4-0.8-0.8-1.7-1.1-2.6c-0.3-0.9-0.4-1.9-0.4-2.9c2.9-1,5.8-1.5,8.9-1.5
				c3.6,0,6.4,0.9,8.5,2.6c2,1.7,3,4.5,3,8.3v15.6c-1.5,0.4-2.9,0.8-4.4,1.1c-1.9,0.4-3.9,0.5-5.9,0.5c-1.6,0-3.3-0.1-4.9-0.5
				c-1.4-0.3-2.6-0.8-3.8-1.6c-1-0.7-1.9-1.7-2.4-2.8c-0.6-1.3-0.9-2.8-0.9-4.2c-0.1-1.5,0.3-2.9,1.1-4.2c0.7-1.1,1.6-2,2.8-2.7
				s2.4-1.2,3.8-1.5c1.4-0.3,2.8-0.4,4.2-0.4c1,0,2.1,0.1,3.3,0.2L2594.2,2246.4z M2594.2,2251.7c-0.4-0.1-0.9-0.1-1.4-0.2
				c-0.4,0-0.9-0.1-1.3-0.1c-1.4-0.1-2.8,0.2-4,0.9c-1,0.6-1.6,1.8-1.5,2.9c0,0.7,0.2,1.5,0.6,2.1c0.4,0.5,0.8,0.8,1.4,1.1
				c0.5,0.2,1.1,0.4,1.7,0.4c0.6,0.1,1.1,0.1,1.6,0.1s1,0,1.6-0.1c0.5-0.1,1-0.2,1.4-0.2L2594.2,2251.7z"/>
			<path id="Path_48" class="st0" d="M2617.1,2252.4c-1.7-0.4-3.3-1.3-4.6-2.5c-1.2-1.4-1.8-3.1-1.6-4.9c-0.1-2.4,0.9-4.7,2.8-6.2
				c2.2-1.6,5-2.4,7.7-2.2c1.3,0,2.7,0.1,4,0.4c1.4,0.3,2.7,0.6,4,1.1c-0.1,1-0.3,1.9-0.5,2.8c-0.2,0.9-0.6,1.7-1,2.6
				c-0.9-0.4-1.8-0.7-2.8-0.9c-1-0.3-2.1-0.4-3.2-0.4c-1,0-1.9,0.1-2.8,0.5c-0.6,0.3-1,1-1,1.7c-0.1,0.6,0.2,1.2,0.7,1.6
				c0.6,0.4,1.3,0.7,2,0.9l3,0.9c0.9,0.3,1.8,0.6,2.6,1c0.7,0.4,1.4,0.9,2,1.5s1,1.4,1.3,2.2c0.3,1,0.5,2.1,0.5,3.2
				c0,1.2-0.3,2.5-0.8,3.6c-0.6,1.1-1.4,2.1-2.3,2.9c-1.1,0.9-2.4,1.5-3.7,1.9c-1.6,0.5-3.3,0.7-4.9,0.7c-0.8,0-1.6,0-2.3-0.1
				c-0.7,0-1.3-0.1-2-0.3c-0.6-0.1-1.3-0.3-1.9-0.4s-1.3-0.4-2-0.7c0.1-1,0.2-1.9,0.5-2.8c0.3-1,0.6-1.9,1-2.8
				c1.1,0.4,2.1,0.8,3.3,1c1.1,0.2,2.1,0.3,3.2,0.3c0.5,0,1.1,0,1.6-0.1s1.1-0.2,1.6-0.5c0.5-0.2,0.9-0.5,1.2-0.9
				c0.7-1,0.6-2.4-0.3-3.2c-0.6-0.4-1.4-0.8-2.1-1L2617.1,2252.4z"/>
			<path id="Path_49" class="st2" d="M2575.1,2218.6c-2.4-0.9-5-0.9-7.3,0.1c-11.4,4.1-22.9,24.6-25.4,29.3l-11.6-17.2l10.8,6.3
				c6.5-8.3,13.5-14.7,19.6-18.4C2567.3,2215,2575.1,2218.6,2575.1,2218.6 M2544.2,2249l-1.7,3.2l-4-6v17.9c1.2,0.2,2.4,0.3,3.6,0.3
				c1.2,0,2.4-0.1,3.6-0.3v-17.7C2545.1,2247.4,2544.6,2248.3,2544.2,2249"/>
			<path id="Path_50" class="st0" d="M2635.1,2259c-1.6,0-2.9,1.3-2.9,2.9c0,1.6,1.3,2.9,2.9,2.9c1.6,0,2.9-1.3,2.9-2.9
				C2637.9,2260.3,2636.6,2259,2635.1,2259 M2635.1,2264.2c-1.3,0-2.4-1.1-2.4-2.4c0-1.3,1.1-2.4,2.4-2.4s2.4,1.1,2.4,2.4
				C2637.4,2263.2,2636.4,2264.2,2635.1,2264.2 M2636.3,2261.4c0-0.6-0.5-1.1-1-1.1c-0.1,0-0.1,0-0.2,0h-1.1v3h0.6v-0.8h0.5h0.1
				l0.6,0.8h0.8l-0.7-1C2636.1,2262.1,2636.3,2261.8,2636.3,2261.4 M2635,2261.9h-0.5v-0.9h0.5c0.6,0,0.6,0.3,0.6,0.4
				C2635.6,2261.5,2635.6,2261.9,2635,2261.9"/>
		</g>
	</g>
</g>
</svg>
