<?xml version="1.0" encoding="utf-8"?>
<!-- Generator: Adobe Illustrator 26.3.1, SVG Export Plug-In . SVG Version: 6.00 Build 0)  -->
<svg version="1.1" id="Layer_1" xmlns="http://www.w3.org/2000/svg" xmlns:xlink="http://www.w3.org/1999/xlink" x="0px" y="0px"
	 viewBox="0 0 30 30" style="enable-background:new 0 0 30 30;" xml:space="preserve">
<style type="text/css">
	.st0{fill:#1A1B2F;}
</style>
<g>
	<g id="menuClose">
		<g id="Group_12959" transform="translate(-0.275 3)">
			<path id="Path_56" class="st0" d="M26.7,6.7H6.9c-0.7,0-1.3-0.6-1.3-1.3c0,0,0,0,0,0C5.5,4.6,6.1,4,6.9,4h19.8
				C27.4,4,28,4.6,28,5.3C28,6.1,27.4,6.7,26.7,6.7C26.7,6.7,26.7,6.7,26.7,6.7z"/>
			<path id="Path_58" class="st0" d="M26.7,13H10.5c-0.7,0-1.3-0.6-1.3-1.3c0,0,0,0,0,0c0-0.7,0.6-1.3,1.3-1.3h16.2
				c0.7,0,1.3,0.6,1.3,1.3C28,12.4,27.4,13,26.7,13C26.7,13,26.7,13,26.7,13z"/>
			<path id="Path_57" class="st0" d="M26.7,19.3h-22c-0.7,0-1.3-0.6-1.3-1.3c0,0,0,0,0,0c0-0.7,0.6-1.3,1.3-1.3h22
				c0.7,0,1.3,0.6,1.3,1.3c0,0,0,0,0,0C28,18.7,27.4,19.3,26.7,19.3C26.7,19.3,26.7,19.3,26.7,19.3z"/>
		</g>
	</g>
</g>
</svg>
