<?xml version="1.0" encoding="utf-8"?>
<!-- Generator: Adobe Illustrator 26.3.1, SVG Export Plug-In . SVG Version: 6.00 Build 0)  -->
<svg version="1.1" id="Layer_1" xmlns="http://www.w3.org/2000/svg" xmlns:xlink="http://www.w3.org/1999/xlink" x="0px" y="0px"
	 viewBox="0 0 30 30" style="enable-background:new 0 0 30 30;" xml:space="preserve">
<style type="text/css">
	.st0{fill:#1A1B2F;}
</style>
<g>
	<g id="menuOpen">
		<g id="Group_12959" transform="translate(-0.942 0.759)">
			<g id="Group_12960" transform="translate(0 -4)">
				<path id="Path_57" class="st0" d="M22.5,26.7L6.9,11.1c-0.5-0.5-0.5-1.4,0-1.9c0,0,0,0,0,0c0.5-0.5,1.4-0.5,1.9,0l15.6,15.6
					c0.5,0.5,0.5,1.4,0,1.9c0,0,0,0,0,0C23.9,27.2,23,27.2,22.5,26.7C22.5,26.7,22.5,26.7,22.5,26.7z"/>
				<path id="Path_57-2" class="st0" d="M8.8,26.7l15.6-15.6c0.5-0.5,0.5-1.4,0-1.9c-0.5-0.5-1.4-0.5-1.9,0L6.9,24.8
					c-0.5,0.5-0.5,1.4,0,1.9S8.3,27.2,8.8,26.7z"/>
			</g>
		</g>
	</g>
</g>
</svg>
