<?xml version="1.0" encoding="utf-8"?>
<!-- Generator: Adobe Illustrator 26.3.1, SVG Export Plug-In . SVG Version: 6.00 Build 0)  -->
<svg version="1.1" id="Layer_1" xmlns="http://www.w3.org/2000/svg" xmlns:xlink="http://www.w3.org/1999/xlink" x="0px" y="0px"
	 viewBox="0 0 128.3 128.3" style="enable-background:new 0 0 128.3 128.3;" xml:space="preserve">
<style type="text/css">
	.st0{fill:#D39B02;}
</style>
<path class="st0" d="M128.2,64.1c0-18.2,0-36.3,0-54.5c0-5.6-4-9.7-9.6-9.7C82.3,0,46,0,9.7,0C4,0,0,4,0,9.7C0,46,0,82.3,0,118.5
	c0,5.7,4,9.7,9.7,9.7c36.2,0,72.5,0,108.8,0c6,0,9.8-4.8,9.8-9.8C128.2,100.4,128.2,82.2,128.2,64.1z M36.8,109.2
	c-5.5-0.1-11.1,0-16.6,0c-0.9,0-1.1-0.2-1.1-1.1c0-19.6,0-39.3,0-58.9c0-0.8,0.2-1.1,1-1.1c5.6,0,11.3,0,16.9,0c1,0,1.1,0.3,1.1,1.2
	c0,9.8,0,19.5,0,29.3s0,19.6,0,29.3C38,108.9,37.8,109.2,36.8,109.2L36.8,109.2z M28.5,39.7c-6,0-11-5-11-10.9
	c0-6.1,4.9-11.1,11-11.1c6,0,11,4.9,11,10.9C39.5,34.7,34.6,39.7,28.5,39.7z M109.2,108c0,0.9-0.2,1.2-1.2,1.2
	c-5.5-0.1-11-0.1-16.5,0c-1,0-1.3-0.2-1.3-1.2c0-10.2,0-20.3,0-30.5c0-2.2-0.2-4.3-0.6-6.4c-1.3-5.8-4.9-8.4-10.8-7.7
	c-5.8,0.6-8.9,3.9-9.7,10.2c-0.2,1.6-0.3,3.2-0.3,4.9c0,9.9,0,19.7,0,29.6c0,1-0.3,1.2-1.3,1.2c-5.5-0.1-11.1,0-16.7,0
	c-0.9,0-1.1-0.2-1.1-1.1c0-19.6,0-39.2,0-58.8c0-1,0.3-1.2,1.2-1.2c5.3,0,10.5,0,15.8,0c1,0,1.2,0.3,1.2,1.2c-0.1,2.3,0,4.7,0,7
	l0.3,0.1c1-1.6,2.1-3,3.4-4.3c4.1-3.8,8.9-5.7,14.4-5.6c4.6,0,9.2,0.6,13.2,3c5,2.9,7.3,7.6,8.5,13c1,4.3,1.2,8.8,1.2,13.2
	C109.3,86.6,109.2,97.3,109.2,108L109.2,108z"/>
</svg>
