<?xml version="1.0" encoding="UTF-8"?><svg id="Layer_1" xmlns="http://www.w3.org/2000/svg" viewBox="0 0 128.28 128.28"><defs><style>.cls-1{fill:#f6b619;}</style></defs><path class="cls-1" d="M128.23,64.13c0-18.16,0-36.31,0-54.47C128.23,4.05,124.19,0,118.59,0,82.3,0,46.01,0,9.72,0,4.03,0,0,4.03,0,9.72,0,46,0,82.27,0,118.54c0,5.69,4.02,9.72,9.71,9.72,36.25,0,72.5-.02,108.75,.02,6.04,0,9.85-4.85,9.82-9.8-.12-18.12-.05-36.23-.05-54.35ZM36.77,109.21c-5.55-.05-11.1-.04-16.64,0-.87,0-1.15-.18-1.15-1.11,.03-19.63,.03-39.26,0-58.89,0-.8,.16-1.1,1.04-1.1,5.63,.04,11.26,.04,16.88,0,.96,0,1.1,.35,1.09,1.18-.02,9.77-.02,19.55-.02,29.32s-.01,19.55,.02,29.32c0,.97-.21,1.28-1.24,1.27ZM28.54,39.71c-5.99,.01-10.99-4.95-11.02-10.93-.03-6.06,4.94-11.06,11-11.06,6.02,0,10.99,4.94,11,10.92,.01,6.09-4.92,11.05-10.98,11.07ZM109.25,108.01c0,.94-.23,1.21-1.19,1.2-5.51-.05-11.02-.05-16.53,0-.99,0-1.26-.23-1.26-1.24,.04-10.17,.04-20.35,.01-30.53,0-2.15-.15-4.3-.61-6.42-1.26-5.75-4.9-8.36-10.75-7.71-5.78,.64-8.91,3.95-9.67,10.19-.2,1.63-.28,3.25-.28,4.89,0,9.86-.01,19.71,.03,29.57,0,1.01-.28,1.25-1.26,1.25-5.55-.05-11.1-.04-16.65,0-.91,0-1.13-.25-1.12-1.14,.03-19.59,.03-39.18,0-58.78,0-.97,.3-1.19,1.22-1.18,5.27,.04,10.54,.05,15.81,0,.98,0,1.21,.3,1.18,1.22-.06,2.34-.02,4.68-.02,7.03l.31,.13c.96-1.57,2.05-3.03,3.39-4.28,4.06-3.81,8.86-5.66,14.44-5.6,4.64,.05,9.17,.59,13.25,3,4.96,2.93,7.28,7.63,8.51,13.02,.99,4.34,1.2,8.76,1.2,13.19,.01,10.73-.03,21.47,0,32.2Z"/></svg>