<?xml version="1.0" encoding="UTF-8"?><svg id="Layer_1" xmlns="http://www.w3.org/2000/svg" viewBox="0 0 40 40"><defs><style>.cls-1{fill:#ffb600;}</style></defs><g><path class="cls-1" d="M5.4,18.71c-.02-.57-.31-1.2-.69-1.99-.69-1.48-1.55-3.31-1.55-6.14C3.16,3.98,7.41,.04,14.53,.04V1.33c-6.41,0-10.08,3.37-10.08,9.25,0,2.55,.79,4.24,1.43,5.59,.42,.9,.79,1.67,.81,2.5l-1.29,.04Z"/><path class="cls-1" d="M11.79,24.04H5.16l.03-.67c0-.14,.08-1.37,.92-2.09,.68-.58,1.73-2.12,1.73-2.54,0-1.02-.4-1.88-.86-2.86-.62-1.32-1.33-2.82-1.33-5.15,0-5.17,3.21-8.19,8.81-8.28,.5-.02,.99,.18,1.38,.53,1.23,1.13,3.37,3.11,4.64,4.29,.83,.77,.98,2.02,.36,2.97-.59,.9-1.76,1.27-2.76,.88-2.44-.94-3.94-1.2-4.66-1.12,.2,.28,.67,.76,1.43,1.27,.37,.25,.77,.57,1.15,.93l-.89,.93c-.32-.31-.67-.59-.97-.79-.65-.43-2.15-1.55-2.12-2.57,.01-.36,.2-.67,.52-.85,1.11-.47,3.11-.12,6,1,.45,.18,.96,.02,1.22-.39,.28-.42,.21-.97-.16-1.32-1.27-1.18-3.41-3.15-4.64-4.28-.13-.12-.31-.19-.48-.19h-.01c-4.94,.08-7.54,2.5-7.54,6.99,0,2.04,.61,3.34,1.2,4.6,.51,1.08,.99,2.1,.99,3.41,0,1.07-1.55,2.97-2.18,3.52-.15,.13-.25,.31-.32,.5h5.17v1.29Z"/></g><rect class="cls-1" x="13.75" y="5.01" width="1.29" height="1.63" transform="translate(1.38 14.3) rotate(-55.13)"/><polygon class="cls-1" points="12.7 26.74 3.64 26.74 3.64 22.75 8.59 22.75 8.59 24.04 4.92 24.04 4.92 25.46 12.7 25.46 12.7 26.74"/><g><path class="cls-1" d="M15.35,39.96h12.23c.83,0,1.5-.69,1.5-1.54V21.27c0-.85-.67-1.54-1.5-1.54h-1.5v1.29h1.5c.11,0,.21,.12,.21,.26v17.15c0,.14-.1,.26-.21,.26H15.35c-.12,0-.21-.12-.21-.26V21.27c0-.14,.1-.26,.21-.26h1.62v-1.29h-1.62c-.83,0-1.5,.69-1.5,1.54v17.15c0,.85,.67,1.54,1.5,1.54Z"/><path class="cls-1" d="M30.6,33.72V15.89c0-1.01-.82-1.83-1.83-1.83-1.01,0-1.83,.82-1.83,1.83v8.17h-10.84v-7.86c0-1.89,1.54-3.42,3.42-3.42h9.25c1.72,0,3.12,1.4,3.12,3.12v17.83c0,1.01,.82,1.83,1.83,1.83,1.01,0,1.83-.82,1.83-1.83v-6.68h-2.33v-1.29h3.61v7.96c0,1.72-1.4,3.12-3.12,3.12-1.72,0-3.12-1.4-3.12-3.12Zm-4.95-17.83c0-.68,.22-1.32,.6-1.83h-6.73c-1.18,0-2.14,.96-2.14,2.14v6.58h8.27v-6.88Z"/><rect class="cls-1" x="28.77" y="35.55" width="4.95" height="1.29"/><path class="cls-1" d="M16.96,25.81h9.01v3.86h-9.01v-3.86Zm7.72,1.29h-6.43v1.29h6.43v-1.29Z"/><g><rect class="cls-1" x="24.68" y="36.1" width="1.29" height="1.29"/><rect class="cls-1" x="22.1" y="36.1" width="1.29" height="1.29"/><rect class="cls-1" x="19.53" y="36.1" width="1.29" height="1.29"/><rect class="cls-1" x="16.96" y="36.1" width="1.29" height="1.29"/></g><g><rect class="cls-1" x="24.68" y="33.53" width="1.29" height="1.29"/><rect class="cls-1" x="22.1" y="33.53" width="1.29" height="1.29"/><rect class="cls-1" x="19.53" y="33.53" width="1.29" height="1.29"/><rect class="cls-1" x="16.96" y="33.53" width="1.29" height="1.29"/></g><g><rect class="cls-1" x="24.68" y="30.95" width="1.29" height="1.29"/><rect class="cls-1" x="22.1" y="30.95" width="1.29" height="1.29"/><rect class="cls-1" x="19.53" y="30.95" width="1.29" height="1.29"/><rect class="cls-1" x="16.96" y="30.95" width="1.29" height="1.29"/></g></g></svg>