<?xml version="1.0" encoding="UTF-8"?><svg id="Layer_1" xmlns="http://www.w3.org/2000/svg" viewBox="0 0 40 40"><defs><style>.cls-1{fill:#ffb600;}</style></defs><path class="cls-1" d="M3.42,35.32h-1.39v-12.59c0-1.49,1.01-2.77,2.45-3.14l7.56-1.89c.51-.13,1.05-.13,1.57,0l7.56,1.89c1.44,.36,2.45,1.65,2.45,3.14v12.59h-1.39v-12.59c0-.85-.57-1.58-1.4-1.79l-7.56-1.89c-.29-.07-.6-.07-.9,0l-7.56,1.89c-.82,.21-1.4,.94-1.4,1.79v12.59Zm5.05-10.21h-1.39v10.21h1.38v-10.21Zm10.1,0h-1.39v10.21h1.38v-10.21Zm-1.41-13.16l.34-2.05c.22-1.3-.15-2.62-1-3.63-.85-1.01-2.1-1.58-3.42-1.58h-.68c-1.32,0-2.56,.58-3.42,1.58-.85,1.01-1.22,2.33-1,3.63l.34,2.05c.36,2.17,2.22,3.74,4.42,3.74s4.06-1.57,4.42-3.74Zm-4.08-5.88c.91,0,1.77,.4,2.36,1.09,.59,.7,.84,1.61,.69,2.51l-.34,2.05c-.25,1.5-1.53,2.58-3.05,2.58s-2.8-1.09-3.05-2.58l-.34-2.05c-.15-.9,.1-1.81,.69-2.51,.59-.7,1.45-1.09,2.36-1.09h.68Z"/><g><path class="cls-1" d="M29.71,17.61c0-1.86-1.51-3.37-3.37-3.37s-3.37,1.51-3.37,3.37,1.51,3.37,3.37,3.37,3.37-1.51,3.37-3.37Zm-5.44,0c0-1.14,.93-2.07,2.07-2.07s2.07,.93,2.07,2.07-.93,2.07-2.07,2.07-2.07-.93-2.07-2.07Z"/><path class="cls-1" d="M37.97,19.2v-3.17l-3.04-1.08c-.16-.53-.38-1.04-.63-1.53l1.38-2.91-2.25-2.24-2.91,1.38c-.48-.25-.99-.46-1.51-.62l-1.08-3.04h-3.15l-1.08,3.04c-.53,.16-1.03,.37-1.51,.62l-2.73-1.3c.06,.48,.07,.96,.02,1.44l2.76,1.31,.29-.17c.57-.33,1.19-.58,1.84-.75l.33-.09,1-2.81h1.32l1,2.81,.33,.09c.65,.17,1.27,.43,1.84,.75l.29,.17,2.69-1.28,.96,.96-1.28,2.69,.17,.29c.33,.57,.59,1.2,.77,1.85l.09,.33,2.81,1v1.35l-2.81,1-.09,.33c-.17,.65-.43,1.27-.77,1.85l-.17,.29,1.28,2.69-.96,.96-2.69-1.28-.29,.17c-.57,.33-1.19,.58-1.84,.75l-.33,.09-1,2.81h-1.31v1.29h2.22l1.08-3.04c.53-.16,1.03-.37,1.51-.62l2.91,1.38,2.25-2.24-1.38-2.91c.26-.49,.47-1,.63-1.53l3.04-1.08Z"/></g></svg>