<?xml version="1.0" encoding="UTF-8"?><svg id="Layer_1" xmlns="http://www.w3.org/2000/svg" viewBox="0 0 40 40"><defs><style>.cls-1{fill:#ffb600;}</style></defs><path class="cls-1" d="M5.66,38.2V12.72l4.03-4.03H27.45v29.52H5.66Zm1.12-1.12H26.33V9.81H11.27v4.49H6.78v22.79Zm0-23.91h3.36v-3.35l-3.36,3.35Z"/><rect class="cls-1" x="10.84" y="28.47" width="8.01" height="1.12"/><rect class="cls-1" x="10.84" y="31.91" width="8.01" height="1.12"/><rect class="cls-1" x="10.84" y="25.03" width="8.01" height="1.12"/><rect class="cls-1" x="21.17" y="25.03" width="1.12" height="4.56"/><rect class="cls-1" x="21.17" y="31.91" width="1.12" height="1.12"/><polygon class="cls-1" points="12.57 22.72 12.57 21 10.84 21 10.84 19.87 12.57 19.87 12.57 18.15 13.69 18.15 13.69 19.87 15.41 19.87 15.41 21 13.69 21 13.69 22.72 12.57 22.72"/><polygon class="cls-1" points="29.77 35.62 29.77 6.36 11.95 6.36 11.95 5.24 30.89 5.24 30.89 35.62 29.77 35.62"/><polygon class="cls-1" points="33.22 32.18 33.22 2.92 15.39 2.92 15.39 1.8 34.34 1.8 34.34 32.18 33.22 32.18"/></svg>