<?xml version="1.0" encoding="UTF-8"?><svg id="Layer_1" xmlns="http://www.w3.org/2000/svg" viewBox="0 0 40 40"><defs><style>.cls-1{fill:#ffb600;}</style></defs><path class="cls-1" d="M26.52,29.47l1.2-1.2v-.22l-.66-.66h-.21c-1.64,1.37-3.64,2.1-5.79,2.1-2.41,0-4.68-.94-6.39-2.64-1.71-1.71-2.64-3.97-2.64-6.38s.94-4.68,2.64-6.38c1.7-1.7,3.97-2.64,6.38-2.64s4.68,.94,6.38,2.64c1.71,1.7,2.65,3.97,2.65,6.38,0,2.15-.73,4.15-2.11,5.79v.21l.67,.66h.22l1.2-1.2,6.36,6.36-1.16,1.16v.22l1.21,1.21-.93,.93-1.21-1.21h-.22l-1.25,1.25-6.37-6.36Zm1.97-.11v.22l4.28,4.28h.22l1.48-1.48v-.22l-4.28-4.28h-.22l-1.48,1.48Zm-7.44-16.62c-2.06,0-4,.8-5.45,2.25-1.46,1.46-2.26,3.39-2.26,5.45s.8,4,2.26,5.45c1.46,1.46,3.39,2.26,5.45,2.26s4-.8,5.45-2.26c1.46-1.46,2.26-3.39,2.26-5.45s-.8-4-2.26-5.45c-1.45-1.45-3.39-2.25-5.45-2.25ZM5.48,35.76c-1.09,0-1.97-.89-1.97-1.97V8.04l3.95-3.88,16.46,.05c1.09,0,1.97,.89,1.97,1.97v3.35h-1.32v-3.35c0-.36-.29-.66-.66-.66H9.23l-.16,.16v4.1H4.98l-.16,.16v23.85c0,.36,.29,.66,.66,.66H23.91c.36,0,.66-.29,.66-.66v-2.31h1.32v2.31c0,1.09-.88,1.97-1.97,1.97H5.48Zm-.2-27.56l.11,.27h2.21l.16-.16v-2.21l-.27-.11-2.21,2.21Zm2.73,18.97v-1.32h3.73v1.32h-3.73Zm12.4-1.31v-1.4l-.12-.15c-1.06-.29-1.78-1.1-1.86-2.04h1.33c.1,.47,.66,.84,1.3,.84,.72,0,1.32-.46,1.32-1,0-.61-.51-1-1.32-1-1.82,0-2.64-1.16-2.64-2.32,0-1.01,.75-1.9,1.86-2.2l.12-.15v-1.41h1.32v1.4l.12,.15c1.06,.29,1.79,1.1,1.86,2.04h-1.33c-.1-.47-.66-.84-1.3-.84-.72,0-1.32,.46-1.32,1,0,.63,.48,1,1.32,1,1.55,0,2.64,.95,2.64,2.31,0,1.01-.75,1.9-1.86,2.2l-.12,.15v1.4h-1.32Zm-12.4-1.95v-1.32h2.49v1.32h-2.49Zm0-3.26v-1.32h2.49v1.32h-2.49Zm0-3.26v-1.32h2.49v1.32h-2.49Zm0-3.26v-1.32h4.16v1.32h-4.16Z"/></svg>