<?xml version="1.0" encoding="UTF-8"?><svg id="Layer_1" xmlns="http://www.w3.org/2000/svg" viewBox="0 0 40 40"><defs><style>.cls-1{fill:#ffb600;}</style></defs><path class="cls-1" d="M26.24,29.47l1.29-1.29v-.06l-.55-.55h-.06c-1.67,1.37-3.69,2.1-5.86,2.1-2.47,0-4.78-.96-6.53-2.7-1.74-1.74-2.7-4.06-2.7-6.53s.96-4.78,2.7-6.53c1.74-1.74,4.06-2.7,6.53-2.7s4.78,.96,6.53,2.7c1.74,1.74,2.7,4.06,2.7,6.53,0,2.17-.73,4.19-2.1,5.86v.06l.55,.55h.06l1.29-1.29,6.65,6.65-1.24,1.24v.06l1.29,1.29-1.21,1.21-1.29-1.29h-.06l-1.33,1.33-6.65-6.65Zm6.68,4.19l1.36-1.36v-.06l-4.16-4.16h-.06l-1.36,1.36v.06l4.16,4.16h.06ZM21.06,12.94c-2.01,0-3.9,.78-5.31,2.2-1.42,1.42-2.2,3.31-2.2,5.31s.78,3.89,2.2,5.31c1.42,1.42,3.31,2.2,5.31,2.2s3.89-.78,5.31-2.2c1.42-1.42,2.2-3.3,2.2-5.31s-.78-3.89-2.2-5.31c-1.42-1.42-3.3-2.2-5.31-2.2ZM5.48,35.96c-1.2,0-2.17-.98-2.17-2.17V7.96L7.37,3.96l16.54,.05c1.2,0,2.17,.98,2.17,2.17v3.55h-1.72v-3.55c0-.25-.2-.46-.46-.46H9.31l-.04,.04v4.21H5.06l-.04,.04v23.76c0,.25,.2,.46,.46,.46H23.91c.25,0,.46-.21,.46-.46v-2.51h1.72v2.51c0,1.2-.97,2.17-2.17,2.17H5.48ZM7.52,8.27l.04-.04v-1.99h-.02l-2.02,2.01v.02h2Zm.29,19.11v-1.72h4.13v1.72H7.8Zm12.4-1.31v-1.54l-.03-.04c-1.1-.33-1.86-1.18-1.94-2.2l-.02-.22h1.71l.03,.16c.08,.38,.57,.68,1.11,.68,.6,0,1.12-.37,1.12-.8,0-.5-.42-.8-1.12-.8-1.96,0-2.84-1.26-2.84-2.52,0-1.08,.78-2.03,1.94-2.37l.03-.05v-1.54h1.72v1.54l.03,.04c1.1,.33,1.86,1.18,1.94,2.2l.02,.22h-1.7l-.03-.16c-.08-.38-.57-.68-1.11-.68-.6,0-1.12,.37-1.12,.8,0,.7,.7,.8,1.12,.8,1.67,0,2.84,1.03,2.84,2.51,0,1.08-.78,2.03-1.95,2.38l-.03,.05v1.54h-1.72Zm-12.4-1.95v-1.72h2.89v1.72h-2.89Zm0-3.26v-1.72h2.89v1.72h-2.89Zm0-3.26v-1.72h2.89v1.72h-2.89Zm0-3.26v-1.72h4.56v1.72H7.8Z"/></svg>