<?xml version="1.0" encoding="UTF-8"?><svg id="Layer_1" xmlns="http://www.w3.org/2000/svg" viewBox="0 0 40 40"><defs><style>.cls-1{fill:#ffb600;}</style></defs><path class="cls-1" d="M2.08,23.27L.05,19.46l1-4.48c.23-.75,.81-1.3,1.52-1.48l4.65-1.18c.34-.09,.7-.09,1.03,0l3.86,1.07,3,2.44,3.87-.74,.2,1.07-4.37,.84-3.3-2.69-3.54-.94c-.16-.04-.33-.04-.5,0l-4.65,1.18c-.35,.09-.63,.36-.74,.7l-.91,4.05,1.84,3.45-.96,.51Z"/><g><rect class="cls-1" x="4.04" y="16.48" width="1.09" height="7.27"/><rect class="cls-1" x="10.36" y="16.48" width="1.09" height="7.27"/></g><path class="cls-1" d="M7.92,10.93h-.46c-1.05,0-1.94-.75-2.11-1.79l-.26-1.56c-.1-.62,.07-1.25,.48-1.73,.41-.48,1-.76,1.63-.76h.98c.63,0,1.22,.28,1.63,.76,.41,.48,.58,1.11,.48,1.73l-.26,1.56c-.17,1.04-1.06,1.79-2.11,1.79Zm-.72-4.74c-.31,0-.6,.14-.8,.37-.2,.24-.29,.55-.24,.85l.26,1.56c.08,.51,.52,.88,1.03,.88h.46c.51,0,.95-.37,1.04-.88l.26-1.56c.05-.3-.04-.61-.23-.85-.2-.24-.49-.37-.8-.37h-.98Z"/><polygon class="cls-1" points="37.36 23.74 15.17 23.74 15.17 18.77 16.26 18.77 16.26 22.66 36.27 22.66 36.27 6.3 16.26 6.3 16.26 12.85 15.17 12.85 15.17 5.21 37.36 5.21 37.36 23.74"/><rect class="cls-1" x="12.82" y="22.66" width="26.89" height="1.09"/><g><rect class="cls-1" x="26.46" y="9.19" width="6.93" height="1.09"/><rect class="cls-1" x="27.71" y="18.68" width="5.68" height="1.09"/><rect class="cls-1" x="22.36" y="12.35" width="11.02" height="1.09"/><rect class="cls-1" x="25" y="15.51" width="8.38" height="1.09"/></g><g><path class="cls-1" d="M17.42,31.6h-.42c-.97,0-1.79-.7-1.95-1.66l-.23-1.41c-.1-.57,.06-1.16,.44-1.61,.38-.45,.93-.7,1.51-.7h.89c.58,0,1.14,.26,1.51,.7,.38,.45,.54,1.03,.44,1.61l-.23,1.4c-.16,.96-.98,1.66-1.95,1.66Zm-.65-4.28c-.26,0-.51,.12-.68,.32-.17,.2-.24,.46-.2,.72l.23,1.41c.07,.43,.44,.75,.88,.75h.42c.44,0,.81-.31,.88-.75l.23-1.41c.04-.26-.03-.52-.2-.72-.17-.2-.42-.32-.68-.32h-.89Z"/><path class="cls-1" d="M26.45,31.6h-.42c-.97,0-1.8-.7-1.95-1.66l-.23-1.4c-.1-.58,.07-1.16,.44-1.61,.38-.45,.93-.7,1.51-.7h.89c.58,0,1.13,.26,1.51,.7,.38,.45,.54,1.03,.44,1.61l-.23,1.41c-.16,.96-.98,1.66-1.95,1.66Zm-.65-4.28c-.26,0-.51,.11-.68,.32-.17,.2-.24,.46-.2,.72l.23,1.4c.07,.43,.44,.75,.88,.75h.42c.44,0,.81-.31,.88-.75l.23-1.4c.04-.26-.03-.52-.2-.72-.17-.2-.42-.32-.68-.32h-.89Z"/><path class="cls-1" d="M39.67,34.91l-4.14-1.1c-.13-.03-.28-.03-.42,0l-4.33,1.09-4.28-1.1c-.14-.03-.28-.03-.43,0l-4.33,1.09-4.28-1.1c-.14-.03-.28-.03-.43,0l-4.19,1.06-.27-1.06,4.19-1.06c.32-.08,.65-.08,.96,0l4.01,1.03,4.06-1.03c.32-.08,.65-.08,.96,0l4.01,1.03,4.06-1.03c.32-.08,.65-.08,.96,0l4.15,1.1-.28,1.05Z"/><path class="cls-1" d="M35.48,31.6h-.42c-.97,0-1.79-.7-1.95-1.66l-.23-1.41c-.1-.58,.07-1.16,.44-1.61,.38-.44,.93-.7,1.51-.7h.89c.58,0,1.14,.26,1.51,.7,.38,.44,.54,1.03,.44,1.61l-.24,1.41c-.16,.96-.98,1.66-1.95,1.66Zm-.65-4.28c-.26,0-.51,.11-.68,.32-.17,.2-.24,.47-.2,.72l.23,1.41c.07,.43,.44,.75,.88,.75h.42c.44,0,.81-.31,.88-.75l.23-1.41c.04-.26-.03-.52-.2-.72-.17-.2-.42-.32-.68-.32h-.89Z"/></g></svg>